# xmcd
#
# Track frame offsets:
#	150
#	25652
#	44485
#	63407
#	83177
#	98395
#	114855
#	137910
#	167382
#	182457
#
# Disc length: 2676 seconds
#
# Revision: 1
# Processed by: cddbd v1.5PL3 Copyright (c) Steve Scherf et al.
# Submitted via: CDex 1.50Beta5
#
DISCID=6f0a720a
DTITLE=吉岡秀隆 - 裏
DYEAR=1900
DGENRE=
TTITLE0=桜
TTITLE1=夜にとぶ
TTITLE2=月光
TTITLE3=深淵
TTITLE4=ふたり
TTITLE5=ノミとアイツ
TTITLE6=熱帯魚の憂鬱
TTITLE7=春
TTITLE8=裏
TTITLE9=それから
EXTD=
EXTT0=
EXTT1=
EXTT2=
EXTT3=
EXTT4=
EXTT5=
EXTT6=
EXTT7=
EXTT8=
EXTT9=
PLAYORDER=
